<svg width="241" height="98" viewBox="0 0 241 98" fill="none" xmlns="http://www.w3.org/2000/svg">
<line x1="34.5296" y1="46.0218" x2="12.5296" y2="30.0218" stroke="#D9D9D9" stroke-width="5"/>
<line x1="40.5055" y1="43.8337" x2="42.5055" y2="13.8337" stroke="#D9D9D9" stroke-width="5"/>
<line x1="42.3422" y1="47.5881" x2="75.3422" y2="38.5881" stroke="#D9D9D9" stroke-width="5"/>
<line x1="41.3946" y1="49.2816" x2="50.3946" y2="79.2816" stroke="#D9D9D9" stroke-width="5"/>
<line x1="35.5127" y1="51.9904" x2="10.5127" y2="70.9904" stroke="#D9D9D9" stroke-width="5"/>
<circle cx="9" cy="27" r="9" fill="white"/>
<circle cx="43" cy="9" r="9" fill="white"/>
<circle cx="76" cy="38" r="9" fill="white"/>
<circle cx="9" cy="71" r="9" fill="white"/>
<circle cx="52" cy="82" r="9" fill="white"/>
<circle cx="39.5" cy="47.5" r="11.5" fill="white"/>
<path d="M110.509 23.8C112.789 23.8 114.769 24.184 116.449 24.952C118.129 25.696 119.425 26.776 120.337 28.192C121.249 29.584 121.705 31.228 121.705 33.124C121.705 35.02 121.249 36.664 120.337 38.056C119.425 39.448 118.129 40.528 116.449 41.296C114.769 42.04 112.789 42.412 110.509 42.412H106.117V49H98.9891V23.8H110.509ZM110.077 36.796C111.541 36.796 112.645 36.484 113.389 35.86C114.133 35.212 114.505 34.3 114.505 33.124C114.505 31.948 114.133 31.036 113.389 30.388C112.645 29.74 111.541 29.416 110.077 29.416H106.117V36.796H110.077ZM131.908 31.828C132.604 30.94 133.504 30.28 134.608 29.848C135.736 29.392 137.02 29.164 138.46 29.164V35.32C137.836 35.248 137.32 35.212 136.912 35.212C135.448 35.212 134.296 35.608 133.456 36.4C132.64 37.192 132.232 38.404 132.232 40.036V49H125.392V29.488H131.908V31.828ZM151.259 49.324C149.171 49.324 147.287 48.892 145.607 48.028C143.927 47.164 142.607 45.964 141.647 44.428C140.711 42.892 140.243 41.152 140.243 39.208C140.243 37.288 140.711 35.56 141.647 34.024C142.607 32.488 143.915 31.3 145.571 30.46C147.251 29.596 149.147 29.164 151.259 29.164C153.371 29.164 155.267 29.596 156.947 30.46C158.627 31.3 159.935 32.488 160.871 34.024C161.807 35.536 162.275 37.264 162.275 39.208C162.275 41.152 161.807 42.892 160.871 44.428C159.935 45.964 158.627 47.164 156.947 48.028C155.267 48.892 153.371 49.324 151.259 49.324ZM151.259 43.888C152.459 43.888 153.443 43.48 154.211 42.664C154.979 41.824 155.363 40.672 155.363 39.208C155.363 37.768 154.979 36.64 154.211 35.824C153.443 35.008 152.459 34.6 151.259 34.6C150.059 34.6 149.075 35.008 148.307 35.824C147.539 36.64 147.155 37.768 147.155 39.208C147.155 40.672 147.539 41.824 148.307 42.664C149.075 43.48 150.059 43.888 151.259 43.888ZM190.104 23.8V49H184.236L173.112 35.572V49H166.128V23.8H171.996L183.12 37.228V23.8H190.104ZM215.112 39.28C215.112 39.328 215.076 39.892 215.004 40.972H200.82C201.108 41.98 201.66 42.76 202.476 43.312C203.316 43.84 204.36 44.104 205.608 44.104C206.544 44.104 207.348 43.972 208.02 43.708C208.716 43.444 209.412 43.012 210.108 42.412L213.708 46.156C211.812 48.268 209.04 49.324 205.392 49.324C203.112 49.324 201.108 48.892 199.38 48.028C197.652 47.164 196.308 45.964 195.348 44.428C194.412 42.892 193.944 41.152 193.944 39.208C193.944 37.288 194.4 35.572 195.312 34.06C196.248 32.524 197.532 31.324 199.164 30.46C200.796 29.596 202.632 29.164 204.672 29.164C206.616 29.164 208.38 29.572 209.964 30.388C211.548 31.18 212.796 32.344 213.708 33.88C214.644 35.392 215.112 37.192 215.112 39.28ZM204.708 34.024C203.652 34.024 202.764 34.324 202.044 34.924C201.348 35.524 200.904 36.34 200.712 37.372H208.704C208.512 36.34 208.056 35.524 207.336 34.924C206.64 34.324 205.764 34.024 204.708 34.024ZM232.089 48.208C231.513 48.568 230.805 48.844 229.965 49.036C229.149 49.228 228.273 49.324 227.337 49.324C224.793 49.324 222.837 48.7 221.469 47.452C220.101 46.204 219.417 44.344 219.417 41.872V35.32H216.573V30.208H219.417V25.132H226.257V30.208H230.721V35.32H226.257V41.8C226.257 42.496 226.437 43.048 226.797 43.456C227.181 43.84 227.685 44.032 228.309 44.032C229.101 44.032 229.797 43.828 230.397 43.42L232.089 48.208Z" fill="url(#paint0_linear_6_20)"/>
<path d="M108.103 66H106.003L101.248 58.815V66H99.148V55.515H101.248L106.003 62.715V55.515H108.103V66ZM118.053 61.665C118.053 61.965 118.033 62.235 117.993 62.475H111.918C111.968 63.075 112.178 63.545 112.548 63.885C112.918 64.225 113.373 64.395 113.913 64.395C114.693 64.395 115.248 64.06 115.578 63.39H117.843C117.603 64.19 117.143 64.85 116.463 65.37C115.783 65.88 114.948 66.135 113.958 66.135C113.158 66.135 112.438 65.96 111.798 65.61C111.168 65.25 110.673 64.745 110.313 64.095C109.963 63.445 109.788 62.695 109.788 61.845C109.788 60.985 109.963 60.23 110.313 59.58C110.663 58.93 111.153 58.43 111.783 58.08C112.413 57.73 113.138 57.555 113.958 57.555C114.748 57.555 115.453 57.725 116.073 58.065C116.703 58.405 117.188 58.89 117.528 59.52C117.878 60.14 118.053 60.855 118.053 61.665ZM115.878 61.065C115.868 60.525 115.673 60.095 115.293 59.775C114.913 59.445 114.448 59.28 113.898 59.28C113.378 59.28 112.938 59.44 112.578 59.76C112.228 60.07 112.013 60.505 111.933 61.065H115.878ZM122.181 59.415V63.435C122.181 63.715 122.246 63.92 122.376 64.05C122.516 64.17 122.746 64.23 123.066 64.23H124.041V66H122.721C120.951 66 120.066 65.14 120.066 63.42V59.415H119.076V57.69H120.066V55.635H122.181V57.69H124.041V59.415H122.181ZM137.222 57.69L134.792 66H132.527L131.012 60.195L129.497 66H127.217L124.772 57.69H126.902L128.372 64.02L129.962 57.69H132.182L133.742 64.005L135.212 57.69H137.222ZM142.198 66.135C141.398 66.135 140.678 65.96 140.038 65.61C139.398 65.25 138.893 64.745 138.523 64.095C138.163 63.445 137.983 62.695 137.983 61.845C137.983 60.995 138.168 60.245 138.538 59.595C138.918 58.945 139.433 58.445 140.083 58.095C140.733 57.735 141.458 57.555 142.258 57.555C143.058 57.555 143.783 57.735 144.433 58.095C145.083 58.445 145.593 58.945 145.963 59.595C146.343 60.245 146.533 60.995 146.533 61.845C146.533 62.695 146.338 63.445 145.948 64.095C145.568 64.745 145.048 65.25 144.388 65.61C143.738 65.96 143.008 66.135 142.198 66.135ZM142.198 64.305C142.578 64.305 142.933 64.215 143.263 64.035C143.603 63.845 143.873 63.565 144.073 63.195C144.273 62.825 144.373 62.375 144.373 61.845C144.373 61.055 144.163 60.45 143.743 60.03C143.333 59.6 142.828 59.385 142.228 59.385C141.628 59.385 141.123 59.6 140.713 60.03C140.313 60.45 140.113 61.055 140.113 61.845C140.113 62.635 140.308 63.245 140.698 63.675C141.098 64.095 141.598 64.305 142.198 64.305ZM150.323 58.98C150.593 58.54 150.943 58.195 151.373 57.945C151.813 57.695 152.313 57.57 152.873 57.57V59.775H152.318C151.658 59.775 151.158 59.93 150.818 60.24C150.488 60.55 150.323 61.09 150.323 61.86V66H148.223V57.69H150.323V58.98ZM159.358 66L156.538 62.46V66H154.438V54.9H156.538V61.215L159.328 57.69H162.058L158.398 61.86L162.088 66H159.358ZM173.492 64.005H169.322L168.632 66H166.427L170.192 55.515H172.637L176.402 66H174.182L173.492 64.005ZM172.922 62.325L171.407 57.945L169.892 62.325H172.922ZM182.564 57.57C183.554 57.57 184.354 57.885 184.964 58.515C185.574 59.135 185.879 60.005 185.879 61.125V66H183.779V61.41C183.779 60.75 183.614 60.245 183.284 59.895C182.954 59.535 182.504 59.355 181.934 59.355C181.354 59.355 180.894 59.535 180.554 59.895C180.224 60.245 180.059 60.75 180.059 61.41V66H177.959V57.69H180.059V58.725C180.339 58.365 180.694 58.085 181.124 57.885C181.564 57.675 182.044 57.57 182.564 57.57ZM187.486 61.815C187.486 60.975 187.651 60.23 187.981 59.58C188.321 58.93 188.776 58.43 189.346 58.08C189.926 57.73 190.571 57.555 191.281 57.555C191.901 57.555 192.441 57.68 192.901 57.93C193.371 58.18 193.746 58.495 194.026 58.875V57.69H196.141V66H194.026V64.785C193.756 65.175 193.381 65.5 192.901 65.76C192.431 66.01 191.886 66.135 191.266 66.135C190.566 66.135 189.926 65.955 189.346 65.595C188.776 65.235 188.321 64.73 187.981 64.08C187.651 63.42 187.486 62.665 187.486 61.815ZM194.026 61.845C194.026 61.335 193.926 60.9 193.726 60.54C193.526 60.17 193.256 59.89 192.916 59.7C192.576 59.5 192.211 59.4 191.821 59.4C191.431 59.4 191.071 59.495 190.741 59.685C190.411 59.875 190.141 60.155 189.931 60.525C189.731 60.885 189.631 61.315 189.631 61.815C189.631 62.315 189.731 62.755 189.931 63.135C190.141 63.505 190.411 63.79 190.741 63.99C191.081 64.19 191.441 64.29 191.821 64.29C192.211 64.29 192.576 64.195 192.916 64.005C193.256 63.805 193.526 63.525 193.726 63.165C193.926 62.795 194.026 62.355 194.026 61.845ZM200.442 54.9V66H198.342V54.9H200.442ZM210.617 57.69L205.472 69.93H203.237L205.037 65.79L201.707 57.69H204.062L206.207 63.495L208.382 57.69H210.617ZM213.819 64.275H217.524V66H211.434V64.305L215.064 59.415H211.449V57.69H217.479V59.385L213.819 64.275ZM227.025 61.665C227.025 61.965 227.005 62.235 226.965 62.475H220.89C220.94 63.075 221.15 63.545 221.52 63.885C221.89 64.225 222.345 64.395 222.885 64.395C223.665 64.395 224.22 64.06 224.55 63.39H226.815C226.575 64.19 226.115 64.85 225.435 65.37C224.755 65.88 223.92 66.135 222.93 66.135C222.13 66.135 221.41 65.96 220.77 65.61C220.14 65.25 219.645 64.745 219.285 64.095C218.935 63.445 218.76 62.695 218.76 61.845C218.76 60.985 218.935 60.23 219.285 59.58C219.635 58.93 220.125 58.43 220.755 58.08C221.385 57.73 222.11 57.555 222.93 57.555C223.72 57.555 224.425 57.725 225.045 58.065C225.675 58.405 226.16 58.89 226.5 59.52C226.85 60.14 227.025 60.855 227.025 61.665ZM224.85 61.065C224.84 60.525 224.645 60.095 224.265 59.775C223.885 59.445 223.42 59.28 222.87 59.28C222.35 59.28 221.91 59.44 221.55 59.76C221.2 60.07 220.985 60.505 220.905 61.065H224.85ZM230.808 58.98C231.078 58.54 231.428 58.195 231.858 57.945C232.298 57.695 232.798 57.57 233.358 57.57V59.775H232.803C232.143 59.775 231.643 59.93 231.303 60.24C230.973 60.55 230.808 61.09 230.808 61.86V66H228.708V57.69H230.808V58.98ZM129.556 80L128.416 78.875C127.446 79.745 126.261 80.18 124.861 80.18C124.091 80.18 123.411 80.05 122.821 79.79C122.241 79.52 121.791 79.145 121.471 78.665C121.151 78.175 120.991 77.61 120.991 76.97C120.991 76.28 121.186 75.66 121.576 75.11C121.966 74.56 122.541 74.115 123.301 73.775C123.031 73.445 122.836 73.13 122.716 72.83C122.596 72.52 122.536 72.19 122.536 71.84C122.536 71.36 122.661 70.93 122.911 70.55C123.161 70.16 123.516 69.855 123.976 69.635C124.446 69.415 124.991 69.305 125.611 69.305C126.241 69.305 126.781 69.425 127.231 69.665C127.681 69.905 128.016 70.225 128.236 70.625C128.456 71.025 128.551 71.47 128.521 71.96H126.481C126.491 71.63 126.411 71.38 126.241 71.21C126.071 71.03 125.841 70.94 125.551 70.94C125.271 70.94 125.036 71.025 124.846 71.195C124.666 71.355 124.576 71.565 124.576 71.825C124.576 72.075 124.651 72.325 124.801 72.575C124.951 72.815 125.196 73.115 125.536 73.475L128.176 76.085C128.196 76.065 128.211 76.045 128.221 76.025C128.231 76.005 128.241 75.985 128.251 75.965L129.106 74.54H131.296L130.246 76.385C130.046 76.775 129.831 77.145 129.601 77.495L132.136 80H129.556ZM124.921 78.44C125.741 78.44 126.466 78.15 127.096 77.57L124.516 75.02C123.546 75.45 123.061 76.06 123.061 76.85C123.061 77.3 123.231 77.68 123.571 77.99C123.911 78.29 124.361 78.44 124.921 78.44ZM146.455 69.53L142.615 80H140.065L136.225 69.53H138.475L141.355 77.855L144.22 69.53H146.455ZM148.929 70.7C148.559 70.7 148.249 70.585 147.999 70.355C147.759 70.115 147.639 69.82 147.639 69.47C147.639 69.12 147.759 68.83 147.999 68.6C148.249 68.36 148.559 68.24 148.929 68.24C149.299 68.24 149.604 68.36 149.844 68.6C150.094 68.83 150.219 69.12 150.219 69.47C150.219 69.82 150.094 70.115 149.844 70.355C149.604 70.585 149.299 70.7 148.929 70.7ZM149.964 71.69V80H147.864V71.69H149.964ZM155.369 80.135C154.689 80.135 154.079 80.015 153.539 79.775C152.999 79.525 152.569 79.19 152.249 78.77C151.939 78.35 151.769 77.885 151.739 77.375H153.854C153.894 77.695 154.049 77.96 154.319 78.17C154.599 78.38 154.944 78.485 155.354 78.485C155.754 78.485 156.064 78.405 156.284 78.245C156.514 78.085 156.629 77.88 156.629 77.63C156.629 77.36 156.489 77.16 156.209 77.03C155.939 76.89 155.504 76.74 154.904 76.58C154.284 76.43 153.774 76.275 153.374 76.115C152.984 75.955 152.644 75.71 152.354 75.38C152.074 75.05 151.934 74.605 151.934 74.045C151.934 73.585 152.064 73.165 152.324 72.785C152.594 72.405 152.974 72.105 153.464 71.885C153.964 71.665 154.549 71.555 155.219 71.555C156.209 71.555 156.999 71.805 157.589 72.305C158.179 72.795 158.504 73.46 158.564 74.3H156.554C156.524 73.97 156.384 73.71 156.134 73.52C155.894 73.32 155.569 73.22 155.159 73.22C154.779 73.22 154.484 73.29 154.274 73.43C154.074 73.57 153.974 73.765 153.974 74.015C153.974 74.295 154.114 74.51 154.394 74.66C154.674 74.8 155.109 74.945 155.699 75.095C156.299 75.245 156.794 75.4 157.184 75.56C157.574 75.72 157.909 75.97 158.189 76.31C158.479 76.64 158.629 77.08 158.639 77.63C158.639 78.11 158.504 78.54 158.234 78.92C157.974 79.3 157.594 79.6 157.094 79.82C156.604 80.03 156.029 80.135 155.369 80.135ZM168.358 71.69V80H166.243V78.95C165.973 79.31 165.618 79.595 165.178 79.805C164.748 80.005 164.278 80.105 163.768 80.105C163.118 80.105 162.543 79.97 162.043 79.7C161.543 79.42 161.148 79.015 160.858 78.485C160.578 77.945 160.438 77.305 160.438 76.565V71.69H162.538V76.265C162.538 76.925 162.703 77.435 163.033 77.795C163.363 78.145 163.813 78.32 164.383 78.32C164.963 78.32 165.418 78.145 165.748 77.795C166.078 77.435 166.243 76.925 166.243 76.265V71.69H168.358ZM170.04 75.815C170.04 74.975 170.205 74.23 170.535 73.58C170.875 72.93 171.33 72.43 171.9 72.08C172.48 71.73 173.125 71.555 173.835 71.555C174.455 71.555 174.995 71.68 175.455 71.93C175.925 72.18 176.3 72.495 176.58 72.875V71.69H178.695V80H176.58V78.785C176.31 79.175 175.935 79.5 175.455 79.76C174.985 80.01 174.44 80.135 173.82 80.135C173.12 80.135 172.48 79.955 171.9 79.595C171.33 79.235 170.875 78.73 170.535 78.08C170.205 77.42 170.04 76.665 170.04 75.815ZM176.58 75.845C176.58 75.335 176.48 74.9 176.28 74.54C176.08 74.17 175.81 73.89 175.47 73.7C175.13 73.5 174.765 73.4 174.375 73.4C173.985 73.4 173.625 73.495 173.295 73.685C172.965 73.875 172.695 74.155 172.485 74.525C172.285 74.885 172.185 75.315 172.185 75.815C172.185 76.315 172.285 76.755 172.485 77.135C172.695 77.505 172.965 77.79 173.295 77.99C173.635 78.19 173.995 78.29 174.375 78.29C174.765 78.29 175.13 78.195 175.47 78.005C175.81 77.805 176.08 77.525 176.28 77.165C176.48 76.795 176.58 76.355 176.58 75.845ZM182.996 68.9V80H180.896V68.9H182.996ZM186.286 70.7C185.916 70.7 185.606 70.585 185.356 70.355C185.116 70.115 184.996 69.82 184.996 69.47C184.996 69.12 185.116 68.83 185.356 68.6C185.606 68.36 185.916 68.24 186.286 68.24C186.656 68.24 186.961 68.36 187.201 68.6C187.451 68.83 187.576 69.12 187.576 69.47C187.576 69.82 187.451 70.115 187.201 70.355C186.961 70.585 186.656 70.7 186.286 70.7ZM187.321 71.69V80H185.221V71.69H187.321ZM191.466 78.275H195.171V80H189.081V78.305L192.711 73.415H189.096V71.69H195.126V73.385L191.466 78.275ZM204.672 75.665C204.672 75.965 204.652 76.235 204.612 76.475H198.537C198.587 77.075 198.797 77.545 199.167 77.885C199.537 78.225 199.992 78.395 200.532 78.395C201.312 78.395 201.867 78.06 202.197 77.39H204.462C204.222 78.19 203.762 78.85 203.082 79.37C202.402 79.88 201.567 80.135 200.577 80.135C199.777 80.135 199.057 79.96 198.417 79.61C197.787 79.25 197.292 78.745 196.932 78.095C196.582 77.445 196.407 76.695 196.407 75.845C196.407 74.985 196.582 74.23 196.932 73.58C197.282 72.93 197.772 72.43 198.402 72.08C199.032 71.73 199.757 71.555 200.577 71.555C201.367 71.555 202.072 71.725 202.692 72.065C203.322 72.405 203.807 72.89 204.147 73.52C204.497 74.14 204.672 74.855 204.672 75.665ZM202.497 75.065C202.487 74.525 202.292 74.095 201.912 73.775C201.532 73.445 201.067 73.28 200.517 73.28C199.997 73.28 199.557 73.44 199.197 73.76C198.847 74.07 198.632 74.505 198.552 75.065H202.497ZM208.454 72.98C208.724 72.54 209.074 72.195 209.504 71.945C209.944 71.695 210.444 71.57 211.004 71.57V73.775H210.449C209.789 73.775 209.289 73.93 208.949 74.24C208.619 74.55 208.454 75.09 208.454 75.86V80H206.354V71.69H208.454V72.98Z" fill="white"/>
<defs>
<linearGradient id="paint0_linear_6_20" x1="164.5" y1="6" x2="164.5" y2="66" gradientUnits="userSpaceOnUse">
<stop stop-color="#F95050"/>
<stop offset="1" stop-color="#F9A150"/>
</linearGradient>
</defs>
</svg>
